<svg xmlns="http://www.w3.org/2000/svg" width="16" height="16" fill="none" stroke="url(#gradient1)" class="bi bi-mortarboard-fill" viewBox="0 0 16 16">
  <defs>
    <linearGradient id="gradient1" x1="0%" y1="0%" x2="100%" y2="0%">
      <stop offset="0%" style="stop-color:#6a8efb;stop-opacity:1" />
      <stop offset="50%" style="stop-color:#d08cfb;stop-opacity:1" />
      <stop offset="100%" style="stop-color:#6a8efb;stop-opacity:1" />
    </linearGradient>
  </defs>
  <path d="M8.211 2.047a.5.5 0 0 0-.422 0l-7.5 3.5a.5.5 0 0 0 .025.917l7.5 3a.5.5 0 0 0 .372 0L14 7.14V13a1 1 0 0 0-1 1v2h3v-2a1 1 0 0 0-1-1V6.739l.686-.275a.5.5 0 0 0 .025-.917z" fill="none" stroke="url(#gradient1)" stroke-width="1"/>
  <path d="M4.176 9.032a.5.5 0 0 0-.656.327l-.5 1.7a.5.5 0 0 0 .294.605l4.5 1.8a.5.5 0 0 0 .372 0l4.5-1.8a.5.5 0 0 0 .294-.605l-.5-1.7a.5.5 0 0 0-.656-.327L8 10.466z" fill="none" stroke="url(#gradient1)" stroke-width="1"/>
</svg>